# xmcd CD database file
#
# Track frame offsets:
#	150
#	10263
#	21312
#	31806
#	38549
#	49392
#	58798
#	70789
#	80521
#	88696
#	92402
#	101229
#	111450
#	117291
#	124114
#	139497
#	144602
#	158313
#	161072
#	173385
#	183049
#	196865
#	206285
#	217132
#	224234
#	230982
#	239305
#	244309
#	251215
#	257388
#	263677
#	276822
#	282727
#	287219
#	299077
#	304238
#
# Disc length: 4200 seconds
#
# Revision: 0
# Processed by: cddbd v1.5.2PL0 Copyright (c) Steve Scherf et al.
# Submitted via: CDex 1.70beta2
#
DISCID=2c106624
DTITLE=DJ SADA - IT'S A PARTY VOL.1
DYEAR=1900
DGENRE=Jazz
TTITLE0=INTRO
TTITLE1=RECOGNISE - LOX
TTITLE2=THE 6TH SENSE - COMMON
TTITLE3=BOOM - ROYCE DA 5'9''
TTITLE4=CROSS THE BORDER - PHILLY'S MOST WANTED
TTITLE5=OOCHIE WALLY - QB FINEST
TTITLE6=PUT IT ON ME - Ja Rule
TTITLE7=GIRLS DEM SUGAR - BENNIE MAN featuring Mya
TTITLE8=WHO'S THAT GIRL - EVE
TTITLE9=no escapin' this - THE BEATNUTS
TTITLE10=LET'S GIT DOE - THE BEATNUTS featuring FATMAN SCOOP
TTITLE11=RIDE WIT ME - NELLY
TTITLE12=week ends - Black Eyed Peas
TTITLE13=REQUEST LINE - Black Eyed Peas featuring Macy Gray
TTITLE14=LET'S STAY TOGETHER - RUN DMC featuring Jagged Edge
TTITLE15=RU Ready 4 Party people - 802 FLAVA
TTITLE16=犠牲 [GISEI] - 802 FLAVA
TTITLE17=INTRO
TTITLE18=ANTE UP (REMIX) - M.O.P.
TTITLE19=INVICIBLE - CAPONE-N-NOREAGA
TTITLE20=STILL TELLING LIES - CUBAN LINK featuring Tony Sunshine
TTITLE21=STILL NOT A PLAYER (REMIX) - BIG PUNISHER
TTITLE22=JUST ANOTHER CASE - CRU featuring Slick Rick
TTITLE23=RUNNIN' - The pharcyde
TTITLE24=GET ON DOWN - KENNY DOPE
TTITLE25=TURN IT UP - RAJA-NEE
TTITLE26=HIP HOP HOORAY - NAUGHTY BY NATURE
TTITLE27=JUMP AROUND (REMIX) - HOUSE OF PAIN
TTITLE28=LET IT ALL HANG OUT (REMIX) - A.D.O.R.
TTITLE29=THEY REMINISCE OVER YOU (T.R.O.Y.) - PETE ROCK and CL SMOOTH
TTITLE30=CAKE and EAT IT TOO - NICE and SMOOTH
TTITLE31=GRAND GROOVE - INTELLIGENT HOODLUM
TTITLE32=THE MOST BEAUTIFULLEST THING IN THE WORLD - KEITH MURRAY
TTITLE33=LISTEN UP - ERULE
TTITLE34=EVERY ONE FALLS IN LOVE (REMIX) - TANTO METRO and DEVONTE
TTITLE35=EVERY ONE FALLS IN LOVE - TANTO METRO and DEVONTE
EXTD=
EXTT0=
EXTT1=
EXTT2=
EXTT3=
EXTT4=
EXTT5=
EXTT6=
EXTT7=
EXTT8=
EXTT9=
EXTT10=
EXTT11=
EXTT12=
EXTT13=
EXTT14=
EXTT15=
EXTT16=
EXTT17=
EXTT18=
EXTT19=
EXTT20=
EXTT21=
EXTT22=
EXTT23=
EXTT24=
EXTT25=
EXTT26=
EXTT27=
EXTT28=
EXTT29=
EXTT30=
EXTT31=
EXTT32=
EXTT33=
EXTT34=
EXTT35=
PLAYORDER=
